<?xml version="1.0" encoding="utf-8"?>

<!DOCTYPE svg PUBLIC "-//W3C//DTD SVG 1.1//EN" "http://www.w3.org/Graphics/SVG/1.1/DTD/svg11.dtd">
<!-- Uploaded to: SVG Repo, www.svgrepo.com, Generator: SVG Repo Mixer Tools -->
<svg version="1.1" id="DIAMOND" xmlns="http://www.w3.org/2000/svg" xmlns:xlink="http://www.w3.org/1999/xlink" 
	 width="800px" height="800px" viewBox="0 0 1800 1800" enable-background="new 0 0 1800 1800" xml:space="preserve">
<g>
	<path fill="#333333" d="M1787.623,836.804l-450.621-450.623c-0.181-0.18-0.375-0.33-0.559-0.501
		c-0.568-0.542-1.137-1.079-1.744-1.581c-0.396-0.321-0.811-0.603-1.215-0.906c-0.422-0.313-0.832-0.639-1.272-0.934
		c-0.448-0.299-0.915-0.563-1.378-0.836c-0.422-0.255-0.841-0.52-1.276-0.757c-0.453-0.237-0.916-0.444-1.378-0.66
		c-0.476-0.229-0.942-0.463-1.43-0.665c-0.433-0.181-0.873-0.321-1.313-0.48c-0.532-0.194-1.061-0.396-1.611-0.563
		c-0.418-0.128-0.845-0.22-1.269-0.326c-0.571-0.149-1.14-0.308-1.725-0.423c-0.462-0.092-0.934-0.141-1.396-0.211
		c-0.555-0.084-1.101-0.185-1.66-0.238c-0.762-0.08-1.523-0.097-2.279-0.119c-0.273-0.005-0.537-0.04-0.811-0.04H485.319
		c-0.36,0-0.713,0.044-1.069,0.053c-0.669,0.022-1.343,0.035-2.008,0.102c-0.607,0.062-1.197,0.167-1.792,0.26
		c-0.422,0.066-0.841,0.11-1.259,0.193c-0.625,0.124-1.232,0.291-1.845,0.449c-0.383,0.097-0.771,0.18-1.149,0.294
		c-0.59,0.181-1.162,0.396-1.734,0.608c-0.396,0.146-0.792,0.269-1.184,0.432c-0.537,0.224-1.056,0.479-1.58,0.735
		c-0.409,0.194-0.819,0.374-1.224,0.585c-0.507,0.273-0.991,0.577-1.479,0.876c-0.392,0.237-0.792,0.458-1.17,0.713
		c-0.542,0.361-1.053,0.757-1.568,1.149c-0.308,0.233-0.625,0.444-0.924,0.691c-0.814,0.669-1.594,1.369-2.337,2.113L12.375,836.804
		c-0.189,0.189-0.353,0.401-0.537,0.595c-0.528,0.555-1.053,1.109-1.541,1.704c-0.348,0.422-0.651,0.867-0.973,1.298
		c-0.291,0.396-0.595,0.775-0.867,1.18c-0.326,0.488-0.612,0.995-0.907,1.497c-0.225,0.383-0.471,0.757-0.683,1.153
		c-0.264,0.502-0.493,1.017-0.735,1.527c-0.198,0.423-0.409,0.841-0.59,1.272c-0.031,0.07-0.07,0.141-0.101,0.211
		c-0.167,0.427-0.295,0.863-0.449,1.294c-0.167,0.467-0.348,0.929-0.493,1.409c-0.154,0.51-0.269,1.026-0.396,1.541
		c-0.119,0.484-0.255,0.96-0.356,1.453c-0.119,0.604-0.189,1.211-0.277,1.813c-0.053,0.414-0.137,0.823-0.176,1.242
		c-0.106,1.039-0.158,2.082-0.158,3.125c0,1.043,0.052,2.086,0.158,3.125c0.04,0.422,0.124,0.828,0.18,1.246
		c0.084,0.604,0.155,1.21,0.273,1.81c0.101,0.493,0.237,0.968,0.356,1.457c0.128,0.516,0.243,1.026,0.396,1.537
		c0.145,0.48,0.325,0.942,0.493,1.414c0.181,0.501,0.343,1.007,0.55,1.5c0.181,0.432,0.392,0.85,0.59,1.272
		c0.242,0.515,0.471,1.025,0.735,1.527c0.211,0.396,0.458,0.77,0.683,1.153c0.295,0.502,0.581,1.008,0.907,1.497
		c0.272,0.405,0.577,0.784,0.867,1.18c0.321,0.431,0.625,0.876,0.973,1.298c0.488,0.594,1.013,1.149,1.541,1.703
		c0.184,0.194,0.348,0.405,0.537,0.595l865.315,865.315c6.163,6.158,14.241,9.239,22.314,9.239c8.074,0,16.151-3.081,22.314-9.239
		l865.306-865.315C1799.945,869.106,1799.945,849.13,1787.623,836.804z M498.394,440.05H732.87L468.645,827.564H110.866
		L498.394,440.05z M990.748,440.05l264.234,387.514H545.025L809.25,440.05H990.748z M1301.613,440.05l387.515,387.514h-357.766
		L1067.128,440.05H1301.613z M1263.76,890.672L900.003,1622.35L536.247,890.672H1263.76z M465.766,890.672l350.88,705.775
		L110.87,890.672H465.766z M1334.242,890.672h354.886l-705.767,705.775L1334.242,890.672z"/>
	<path fill="#333333" d="M900.003,284.427c17.427,0,31.554-14.126,31.554-31.554V75.567c0-17.428-14.127-31.554-31.554-31.554
		c-17.428,0-31.554,14.126-31.554,31.554v177.307C868.449,270.301,882.576,284.427,900.003,284.427z"/>
	<path fill="#333333" d="M1142.004,268.245c4.979,2.884,10.414,4.253,15.781,4.253c10.89,0,21.486-5.644,27.336-15.747
		l88.861-153.434c8.732-15.077,3.586-34.384-11.494-43.119c-15.082-8.733-34.386-3.587-43.118,11.495l-88.86,153.434
		C1121.775,240.205,1126.922,259.512,1142.004,268.245z"/>
	<path fill="#333333" d="M1441.811,306.825c8.074,0,16.151-3.082,22.314-9.24l125.37-125.371c12.322-12.326,12.322-32.302,0-44.628
		c-12.325-12.317-32.302-12.317-44.628,0l-125.371,125.371c-12.321,12.326-12.321,32.302,0,44.628
		C1425.659,303.744,1433.737,306.825,1441.811,306.825z"/>
	<path fill="#333333" d="M614.877,256.751c5.85,10.103,16.446,15.747,27.337,15.747c5.366,0,10.807-1.369,15.781-4.253
		c15.081-8.733,20.228-28.041,11.494-43.118l-88.86-153.434c-8.729-15.082-28.046-20.224-43.118-11.495
		c-15.082,8.734-20.228,28.042-11.494,43.119L614.877,256.751z"/>
	<path fill="#333333" d="M335.882,297.585c6.163,6.158,14.241,9.24,22.314,9.24s16.152-3.082,22.314-9.24
		c12.322-12.326,12.322-32.302,0-44.628L255.139,127.586c-12.326-12.317-32.302-12.317-44.627,0
		c-12.322,12.326-12.322,32.302,0,44.628L335.882,297.585z"/>
</g>
</svg>