<?xml version="1.0" encoding="utf-8"?>

<!DOCTYPE svg PUBLIC "-//W3C//DTD SVG 1.1//EN" "http://www.w3.org/Graphics/SVG/1.1/DTD/svg11.dtd">
<!-- Uploaded to: SVG Repo, www.svgrepo.com, Generator: SVG Repo Mixer Tools -->
<svg version="1.1" id="FAVORITE" xmlns="http://www.w3.org/2000/svg" xmlns:xlink="http://www.w3.org/1999/xlink" 
	 width="800px" height="800px" viewBox="0 0 1800 1800" enable-background="new 0 0 1800 1800" xml:space="preserve">
<g>
	<path fill="#333333" d="M1711.338,9.595H88.67c-43.603,0-79.074,35.468-79.074,79.061v1622.683
		c0,43.594,35.472,79.065,79.074,79.065h1622.667c43.594,0,79.066-35.472,79.066-79.065V88.656
		C1790.404,45.063,1754.932,9.595,1711.338,9.595z M88.67,72.128h1622.667c9.117,0,16.532,7.416,16.532,16.528v194.047H72.13V88.656
		C72.13,79.544,79.545,72.128,88.67,72.128z M1711.338,1727.871H88.67c-9.125,0-16.541-7.415-16.541-16.532V345.236h1655.74
		v1366.103C1727.87,1720.456,1720.455,1727.871,1711.338,1727.871z"/>
	<path fill="#333333" d="M207.43,224.637c27.751,0,50.25-22.5,50.25-50.25c0-27.756-22.499-50.25-50.25-50.25
		s-50.25,22.495-50.25,50.25C157.18,202.137,179.679,224.637,207.43,224.637z"/>
	<path fill="#333333" d="M365.997,224.637c27.751,0,50.25-22.5,50.25-50.25c0-27.756-22.499-50.25-50.25-50.25
		s-50.25,22.495-50.25,50.25C315.747,202.137,338.246,224.637,365.997,224.637z"/>
	<path fill="#333333" d="M524.563,224.637c27.751,0,50.25-22.5,50.25-50.25c0-27.756-22.5-50.25-50.25-50.25
		s-50.25,22.495-50.25,50.25C474.313,202.137,496.813,224.637,524.563,224.637z"/>
	<path fill="#333333" d="M1162.234,1090.907l216.864-211.397c8.523-8.307,11.59-20.732,7.913-32.052
		c-3.678-11.319-13.461-19.568-25.238-21.28l-299.703-43.55L928.039,511.056c-5.27-10.672-16.14-17.429-28.039-17.429
		c-11.901,0-22.77,6.757-28.037,17.429L737.922,782.628l-299.704,43.55c-11.777,1.712-21.561,9.96-25.239,21.28
		c-3.679,11.319-0.61,23.745,7.911,32.052l216.867,211.397l-51.192,298.5c-2.011,11.733,2.812,23.585,12.44,30.582
		c9.629,6.996,22.399,7.917,32.926,2.381L900,1281.431l268.066,140.939c4.575,2.404,9.57,3.59,14.547,3.59
		c6.482,0,12.938-2.015,18.381-5.971c9.632-6.997,14.451-18.853,12.441-30.582L1162.234,1090.907z M914.552,1218.43
		c-9.108-4.789-19.993-4.789-29.101,0l-226.542,119.108l43.262-252.258c1.738-10.146-1.623-20.492-8.992-27.677L509.905,878.952
		l253.276-36.805c10.184-1.48,18.986-7.875,23.54-17.103L900,595.541l113.268,229.504c4.555,9.228,13.361,15.623,23.542,17.103
		l253.278,36.805l-183.273,178.651c-7.371,7.185-10.734,17.535-8.994,27.677l43.271,252.254L914.552,1218.43z"/>
	<path fill="#333333" d="M900,1416.294c-17.269,0-31.267,13.998-31.267,31.267v106.119c0,17.269,13.998,31.267,31.267,31.267
		c17.27,0,31.267-13.998,31.267-31.267v-106.119C931.267,1430.292,917.27,1416.294,900,1416.294z"/>
	<path fill="#333333" d="M1424.206,1150.112l-100.923-32.802c-16.453-5.344-34.072,3.651-39.402,20.069
		c-5.339,16.423,3.646,34.063,20.07,39.402l100.923,32.802c3.214,1.043,6.469,1.54,9.671,1.54c13.182,0,25.438-8.401,29.73-21.609
		C1449.615,1173.092,1440.629,1155.452,1424.206,1150.112z"/>
	<path fill="#333333" d="M1137.244,686.108c5.549,4.033,11.979,5.974,18.352,5.974c9.67,0,19.201-4.469,25.32-12.89l62.381-85.853
		c10.15-13.969,7.054-33.524-6.918-43.674c-13.967-10.15-33.518-7.053-43.672,6.916l-62.381,85.853
		C1120.176,656.403,1123.272,675.958,1137.244,686.108z"/>
	<path fill="#333333" d="M619.075,679.19c6.117,8.421,15.65,12.892,25.321,12.892c6.37,0,12.802-1.941,18.351-5.974
		c13.972-10.148,17.068-29.703,6.918-43.672l-62.372-85.853c-10.148-13.965-29.703-17.071-43.672-6.918
		c-13.972,10.148-17.068,29.703-6.918,43.672L619.075,679.19z"/>
	<path fill="#333333" d="M476.73,1117.311l-100.933,32.793c-16.423,5.335-25.41,22.975-20.073,39.397
		c4.292,13.213,16.549,21.614,29.729,21.614c3.202,0,6.458-0.497,9.669-1.54l100.932-32.793
		c16.423-5.335,25.411-22.975,20.074-39.397S493.153,1111.976,476.73,1117.311z"/>
</g>
</svg>