<?xml version="1.0" encoding="utf-8"?>

<!DOCTYPE svg PUBLIC "-//W3C//DTD SVG 1.1//EN" "http://www.w3.org/Graphics/SVG/1.1/DTD/svg11.dtd">
<!-- Uploaded to: SVG Repo, www.svgrepo.com, Generator: SVG Repo Mixer Tools -->
<svg version="1.1" id="PAGE" xmlns="http://www.w3.org/2000/svg" xmlns:xlink="http://www.w3.org/1999/xlink" 
	 width="800px" height="800px" viewBox="0 0 1800 1800" enable-background="new 0 0 1800 1800" xml:space="preserve">
<g>
	<path fill="#333333" d="M1720.335,5.563H85.245c-43.937,0-79.679,35.739-79.679,79.667v1635.1c0,43.928,35.743,79.67,79.679,79.67
		h1635.09c43.927,0,79.665-35.742,79.665-79.67V85.23C1800,41.302,1764.262,5.563,1720.335,5.563z M85.245,68.575h1635.09
		c9.182,0,16.653,7.473,16.653,16.655v195.532H68.578V85.23C68.578,76.048,76.055,68.575,85.245,68.575z M1720.335,1736.988H85.245
		c-9.19,0-16.667-7.472-16.667-16.658V343.774h1668.41V1720.33C1736.988,1729.517,1729.517,1736.988,1720.335,1736.988z"/>
	<path fill="#333333" d="M1518.679,1150.928H333.948c-47.154,0-85.517,38.363-85.517,85.517v315.061
		c0,47.152,38.363,85.516,85.517,85.516h1184.73c47.154,0,85.518-38.363,85.518-85.516v-315.061
		C1604.196,1189.291,1565.833,1150.928,1518.679,1150.928z M1541.184,1551.505c0,12.403-10.096,22.504-22.505,22.504H333.948
		c-12.409,0-22.504-10.101-22.504-22.504v-315.061c0-12.412,10.096-22.505,22.504-22.505h1184.73
		c12.409,0,22.505,10.093,22.505,22.505V1551.505z"/>
	<path fill="#333333" d="M333.948,913.886h305.565c47.153,0,85.517-38.365,85.517-85.519V522.802
		c0-47.154-38.363-85.516-85.517-85.516H333.948c-47.154,0-85.517,38.362-85.517,85.516v305.565
		C248.432,875.521,286.794,913.886,333.948,913.886z M311.444,522.802c0-12.408,10.096-22.504,22.504-22.504h305.565
		c12.408,0,22.505,10.096,22.505,22.504v305.565c0,12.408-10.097,22.505-22.505,22.505H333.948
		c-12.409,0-22.504-10.097-22.504-22.505V522.802z"/>
	<path fill="#333333" d="M1572.689,996.396H279.938c-17.401,0-31.506,14.108-31.506,31.505c0,17.406,14.105,31.507,31.506,31.507
		h1292.751c17.401,0,31.507-14.101,31.507-31.507C1604.196,1010.505,1590.091,996.396,1572.689,996.396z"/>
	<path fill="#333333" d="M1572.689,832.116H858.558c-17.402,0-31.507,14.105-31.507,31.507c0,17.401,14.105,31.505,31.507,31.505
		h714.132c17.401,0,31.507-14.104,31.507-31.505C1604.196,846.222,1590.091,832.116,1572.689,832.116z"/>
	<path fill="#333333" d="M1572.689,643.081H858.558c-17.402,0-31.507,14.105-31.507,31.506c0,17.401,14.105,31.505,31.507,31.505
		h714.132c17.401,0,31.507-14.104,31.507-31.505C1604.196,657.186,1590.091,643.081,1572.689,643.081z"/>
	<path fill="#333333" d="M1572.689,454.044H858.558c-17.402,0-31.507,14.105-31.507,31.507c0,17.401,14.105,31.505,31.507,31.505
		h714.132c17.401,0,31.507-14.104,31.507-31.505C1604.196,468.15,1590.091,454.044,1572.689,454.044z"/>
	<circle fill="#333333" cx="204.913" cy="171.616" r="50.635"/>
	<circle fill="#333333" cx="364.694" cy="171.616" r="50.635"/>
	<circle fill="#333333" cx="524.474" cy="171.616" r="50.635"/>
</g>
</svg>