<svg fill="#000000" height="800px" width="800px" version="1.1" id="Capa_1" xmlns="http://www.w3.org/2000/svg" xmlns:xlink="http://www.w3.org/1999/xlink" 
	 viewBox="0 0 179.891 179.891" xml:space="preserve">
<path d="M168.644,9.077H11.247C5.035,9.077,0,14.112,0,20.323v11.808v127.436c0,6.211,5.035,11.247,11.247,11.247h157.398
	c6.211,0,11.247-5.035,11.247-11.247V52.558V20.323C179.891,14.112,174.855,9.077,168.644,9.077z M96.82,146.806H25.958
	c-2.761,0-5-2.238-5-5c0-2.762,2.239-5,5-5H96.82c2.761,0,5,2.238,5,5C101.82,144.568,99.581,146.806,96.82,146.806z
	 M118.211,122.244H25.958c-2.761,0-5-2.238-5-5c0-2.762,2.239-5,5-5h92.253c2.761,0,5,2.238,5,5
	C123.211,120.005,120.973,122.244,118.211,122.244z M169.891,47.558H98.613c-1.513,0-2.919-0.778-3.723-2.061L84.854,29.477
	c-0.914-1.459-2.515-2.346-4.238-2.346H10v-1.808c0-3.45,2.797-6.247,6.247-6.247h147.398c3.45,0,6.247,2.797,6.247,6.247V47.558z"
	/>
</svg>