<?xml version="1.0" encoding="utf-8"?>

<!DOCTYPE svg PUBLIC "-//W3C//DTD SVG 1.1//EN" "http://www.w3.org/Graphics/SVG/1.1/DTD/svg11.dtd">
<!-- Uploaded to: SVG Repo, www.svgrepo.com, Generator: SVG Repo Mixer Tools -->
<svg version="1.1" id="TAG" xmlns="http://www.w3.org/2000/svg" xmlns:xlink="http://www.w3.org/1999/xlink" 
	 width="800px" height="800px" viewBox="0 0 1800 1800" enable-background="new 0 0 1800 1800" xml:space="preserve">
<g>
	<g>
		<path fill="#333333" d="M709.54,1791.754c-8.041,0-16.079-3.068-22.216-9.2L17.443,1112.676
			c-5.893-5.895-9.202-13.885-9.202-22.217s3.309-16.323,9.202-22.214l784.741-784.743c1.773-1.772,3.706-3.289,5.751-4.549
			l261.497-261.504c7.938-7.94,19.514-11.034,30.349-8.133l527.374,141.313c10.844,2.903,19.313,11.372,22.219,22.213
			l141.314,527.374c2.906,10.844-0.197,22.411-8.131,30.348l-261.53,261.529c-1.271,2.06-2.788,3.983-4.522,5.724l-784.748,784.736
			C725.622,1788.686,717.579,1791.754,709.54,1791.754z M84.09,1090.459l625.45,625.445l757.407-757.398
			c1.268-2.061,2.784-3.98,4.52-5.721l253.83-253.825l-131.928-492.333l-492.33-131.92L847.216,328.534
			c-1.773,1.773-3.706,3.292-5.753,4.552L84.09,1090.459z"/>
	</g>
	<g>
		<path fill="#333333" d="M792.92,1469.969c-8.041,0-16.082-3.068-22.216-9.2l-431.477-431.476c-12.27-12.273-12.27-32.164,0-44.437
			c12.269-12.264,32.164-12.264,44.432,0l431.477,431.477c12.271,12.272,12.271,32.163,0,44.436
			C809.001,1466.9,800.961,1469.969,792.92,1469.969z"/>
	</g>
	<g>
		<path fill="#333333" d="M939.701,1323.197c-8.039,0-16.082-3.068-22.218-9.201L486.005,882.514
			c-12.271-12.269-12.271-32.163,0-44.432c12.268-12.269,32.163-12.269,44.431,0l431.483,431.479
			c12.269,12.273,12.269,32.163,0,44.436C955.782,1320.129,947.739,1323.197,939.701,1323.197z"/>
	</g>
	<g>
		<path fill="#333333" d="M1086.482,1176.416c-8.039,0-16.082-3.068-22.214-9.201L632.781,735.737
			c-12.271-12.268-12.271-32.161,0-44.431c12.269-12.269,32.163-12.269,44.432,0l431.482,431.474
			c12.273,12.273,12.273,32.164,0.005,44.436C1102.563,1173.348,1094.521,1176.416,1086.482,1176.416z"/>
	</g>
	<g>
		<path fill="#333333" d="M1243.656,776.548c-0.01,0-0.014,0-0.018,0c-58.822-0.004-114.115-22.908-155.697-64.493
			c-41.586-41.586-64.492-96.882-64.492-155.698c0.004-58.814,22.906-114.109,64.492-155.698
			c41.592-41.589,96.885-64.491,155.701-64.491c58.813,0,114.109,22.902,155.696,64.491c85.852,85.855,85.852,225.547,0.005,311.396
			C1357.748,753.644,1302.459,776.548,1243.656,776.548z M1243.643,399.003c-42.034,0-81.548,16.367-111.266,46.086
			c-29.721,29.72-46.092,69.235-46.092,111.267s16.371,81.548,46.088,111.267c29.717,29.717,69.23,46.086,111.27,46.088
			c0,0,0.009,0,0.014,0c42.02,0.002,81.529-16.367,111.256-46.088c61.35-61.35,61.35-161.18-0.005-222.534
			C1325.189,415.37,1285.672,399.003,1243.643,399.003z"/>
	</g>
</g>
</svg>